<svg width="18" height="20" viewBox="0 0 18 20" fill="none" xmlns="http://www.w3.org/2000/svg">
<g clip-path="url(#clip0_7596_86)">
<path d="M17.2743 2.05233H12.7315L12.3756 1.35546C12.3002 1.20648 12.1841 1.08116 12.0403 0.993599C11.8965 0.906038 11.7308 0.859711 11.5617 0.859831H7.23462C7.06592 0.859192 6.90045 0.905346 6.75716 0.993004C6.61388 1.08066 6.49858 1.20628 6.42447 1.35546L6.06861 2.05233H1.52576C1.36511 2.05233 1.21105 2.11515 1.09745 2.22697C0.98386 2.33879 0.920044 2.49045 0.920044 2.64858L0.920044 3.84108C0.920044 3.99922 0.98386 4.15087 1.09745 4.26269C1.21105 4.37451 1.36511 4.43733 1.52576 4.43733H17.2743C17.435 4.43733 17.589 4.37451 17.7026 4.26269C17.8162 4.15087 17.88 3.99922 17.88 3.84108V2.64858C17.88 2.49045 17.8162 2.33879 17.7026 2.22697C17.589 2.11515 17.435 2.05233 17.2743 2.05233ZM2.93404 18.2629C2.96293 18.717 3.16655 19.1432 3.50344 19.4548C3.84033 19.7663 4.28517 19.9398 4.7474 19.9398H14.0527C14.5149 19.9398 14.9598 19.7663 15.2966 19.4548C15.6335 19.1432 15.8372 18.717 15.866 18.2629L16.6686 5.62983H2.13147L2.93404 18.2629Z" fill="white"/>
</g>
<defs>
<clipPath id="clip0_7596_86">
<rect width="16.96" height="19.08" fill="white" transform="translate(0.920044 0.86)"/>
</clipPath>
</defs>
</svg>
